<?xml version="1.0" encoding="utf-8"?>
<svg width="680px" height="648px" viewBox="0 0 680 648" version="1.1" xmlns:xlink="http://www.w3.org/1999/xlink" xmlns="http://www.w3.org/2000/svg">
  <defs>
    <path d="M0 0L680 0L680 648L0 648L0 0Z" id="path_1" />
    <clipPath id="clip_1">
      <use xlink:href="#path_1" clip-rule="evenodd" fill-rule="evenodd" />
    </clipPath>
  </defs>
  <g id="VS" clip-path="url(#clip_1)">
    <g transform="translate(0, 120.73863)" id="VS" fill="#645A5A">
      <path d="M58.9489 120.739L166.903 426.847L171.165 426.847L279.119 120.739L325.284 120.739L191.761 484.375L146.307 484.375L12.7841 120.739L58.9489 120.739ZM580.966 211.648Q577.77 184.659 555.043 169.744Q532.315 154.83 499.29 154.83Q463.068 154.83 441.051 171.964Q419.034 189.098 419.034 215.199Q419.034 234.73 431.019 246.715Q443.004 258.7 459.428 265.359Q475.852 272.017 489.347 275.568L526.278 285.511Q540.483 289.24 557.972 295.81Q575.462 302.379 591.531 313.654Q607.599 324.929 618.075 342.507Q628.551 360.085 628.551 385.653Q628.551 415.128 613.193 438.92Q597.834 462.713 568.448 476.74Q539.063 490.767 497.159 490.767Q438.565 490.767 404.119 463.068Q369.673 435.369 366.477 390.625L411.932 390.625Q413.707 411.222 425.87 424.627Q438.033 438.033 456.765 444.513Q475.497 450.994 497.159 450.994Q522.372 450.994 542.436 442.738Q562.5 434.482 574.219 419.656Q585.938 404.83 585.938 384.943Q585.938 366.832 575.817 355.469Q565.696 344.105 549.183 337.003Q532.67 329.901 513.494 324.574L468.75 311.79Q426.136 299.538 401.278 276.811Q376.42 254.084 376.42 217.33Q376.42 186.79 393.022 163.974Q409.624 141.158 437.766 128.462Q465.909 115.767 500.71 115.767Q535.866 115.767 563.21 128.285Q590.554 140.803 606.623 162.464Q622.692 184.126 623.58 211.648L580.966 211.648Z" />
    </g>
  </g>
</svg>